<?xml version="1.0" standalone="no"?>
<!DOCTYPE svg PUBLIC "-//W3C//DTD SVG 20010904//EN"
 "http://www.w3.org/TR/2001/REC-SVG-20010904/DTD/svg10.dtd">
<svg version="1.0" xmlns="http://www.w3.org/2000/svg"
 width="274.000000pt" height="254.000000pt" viewBox="0 0 274.000000 254.000000"
 preserveAspectRatio="xMidYMid meet">

<g transform="translate(0.000000,254.000000) scale(0.100000,-0.100000)"
fill="#000000" stroke="none">
<path d="M133 2320 c-12 -5 -29 -20 -38 -34 -15 -23 -17 -53 -12 -253 5 -253
12 -297 73 -420 61 -127 185 -227 327 -264 l47 -13 0 -271 c0 -149 5 -309 11
-355 45 -365 210 -586 504 -676 82 -25 105 -28 250 -28 188 -1 277 18 409 87
96 50 203 152 259 248 44 74 93 221 107 317 11 78 13 1612 2 1628 -4 5 -18 18
-32 27 -21 15 -55 17 -265 17 -244 0 -251 -1 -295 -38 -3 -2 -7 -360 -10 -795
l-5 -792 -23 -56 c-32 -80 -61 -104 -126 -104 -90 0 -122 30 -151 141 -12 48
-15 143 -15 562 0 546 0 545 -55 570 -16 7 -78 12 -158 13 -231 1 -239 9 -245
268 -4 173 -5 176 -30 204 l-26 27 -240 -1 c-133 0 -251 -4 -263 -9z m470
-232 c7 -171 23 -241 64 -283 49 -49 85 -58 245 -63 l147 -4 3 -522 c4 -499 5
-524 25 -584 39 -116 100 -167 210 -178 79 -8 155 30 196 96 59 99 60 112 64
938 l4 752 215 -2 215 -3 -1 -755 c0 -415 -5 -783 -10 -818 -5 -34 -20 -98
-35 -141 -69 -207 -202 -336 -415 -403 -66 -20 -94 -23 -235 -22 -148 0 -166
2 -240 28 -200 69 -320 196 -389 411 -37 116 -46 223 -46 566 l0 307 -75 17
c-134 29 -226 90 -289 190 -69 107 -86 196 -86 448 l0 177 213 0 214 0 6 -152z"/>
<path d="M2176 715 c-11 -29 -7 -505 4 -526 9 -16 22 -19 74 -19 77 0 76 -1
76 121 0 103 0 102 105 97 l60 -3 3 -94 c1 -52 8 -101 14 -108 6 -8 33 -13 69
-13 47 0 60 4 69 19 11 21 14 479 4 519 -6 21 -11 23 -78 20 l-71 -3 -3 -97
-3 -98 -84 0 -84 0 -3 98 -3 97 -71 3 c-59 2 -73 0 -78 -13z"/>
</g>
</svg>
