<?xml version="1.0" standalone="no"?>
<!DOCTYPE svg PUBLIC "-//W3C//DTD SVG 20010904//EN"
 "http://www.w3.org/TR/2001/REC-SVG-20010904/DTD/svg10.dtd">
<svg version="1.0" xmlns="http://www.w3.org/2000/svg"
 width="550.000000pt" height="518.000000pt" viewBox="0 0 550.000000 518.000000"
 preserveAspectRatio="xMidYMid meet">

<g transform="translate(0.000000,518.000000) scale(0.100000,-0.100000)"
fill="#000000" stroke="none">
<path d="M0 2590 c0 -2296 2 -2590 15 -2590 13 0 15 294 15 2590 0 2296 -2
2590 -15 2590 -13 0 -15 -294 -15 -2590z"/>
<path d="M529 4247 c-18 -12 -39 -34 -46 -47 -10 -20 -12 -311 -10 -1425 3
-1389 3 -1401 24 -1520 63 -342 170 -577 353 -769 200 -210 438 -323 758 -362
598 -71 1086 118 1357 525 115 173 178 342 228 606 20 107 21 147 24 1515 2
1113 0 1410 -9 1429 -7 13 -26 34 -41 45 -28 20 -40 21 -460 24 -457 3 -465 2
-509 -45 l-23 -25 -5 -1371 c-5 -1241 -8 -1381 -23 -1462 -48 -251 -140 -346
-322 -332 -156 12 -232 95 -277 305 -21 96 -22 116 -25 1472 -4 1514 1 1400
-66 1440 -30 19 -53 20 -463 20 l-431 0 -34 -23z m861 -1334 c1 -1306 5 -1494
40 -1639 43 -174 133 -297 255 -344 86 -33 245 -34 327 -2 166 66 257 258 278
586 5 78 10 700 10 1384 l0 1242 395 0 396 0 -4 -1392 c-4 -1511 0 -1408 -58
-1636 -100 -393 -341 -668 -697 -796 -244 -87 -614 -100 -888 -31 -401 102
-671 388 -783 830 -58 227 -54 132 -58 1638 l-4 1387 396 0 395 0 0 -1227z"/>
<path d="M3432 1148 c-17 -17 -17 -679 0 -696 16 -16 160 -16 176 0 8 8 12 53
12 135 l0 123 108 0 107 0 -3 -108 c-2 -59 1 -120 7 -135 10 -26 12 -27 94
-27 51 0 88 5 95 12 7 7 12 43 13 88 1 54 3 67 8 45 14 -54 41 -95 83 -123 36
-23 51 -27 117 -27 54 0 86 6 109 18 32 18 34 18 78 -4 47 -22 112 -21 141 3
19 16 18 142 -2 158 -12 10 -15 36 -15 114 0 89 -3 109 -25 153 -48 96 -158
139 -291 114 -73 -13 -162 -53 -171 -77 -6 -17 33 -108 54 -125 10 -9 6 -16
-18 -36 -33 -28 -49 -54 -60 -98 -4 -16 -7 82 -8 218 -1 150 -5 256 -11 268
-9 16 -22 19 -88 19 -42 0 -84 -5 -92 -10 -12 -7 -15 -33 -15 -130 l0 -120
-107 0 -108 0 0 118 c0 78 -4 122 -12 130 -7 7 -42 12 -88 12 -46 0 -81 -5
-88 -12z m912 -327 c5 -8 -132 -21 -143 -14 -2 1 7 7 20 12 31 13 116 14 123
2z m16 -179 c0 -20 -37 -42 -70 -42 -28 0 -50 11 -50 24 0 24 25 36 72 36 40
0 48 -3 48 -18z"/>
</g>
</svg>
