<?xml version="1.0" standalone="no"?>
<!DOCTYPE svg PUBLIC "-//W3C//DTD SVG 20010904//EN"
 "http://www.w3.org/TR/2001/REC-SVG-20010904/DTD/svg10.dtd">
<svg version="1.0" xmlns="http://www.w3.org/2000/svg"
 width="550.000000pt" height="541.000000pt" viewBox="0 0 550.000000 541.000000"
 preserveAspectRatio="xMidYMid meet">

<g transform="translate(0.000000,541.000000) scale(0.100000,-0.100000)"
fill="#000000" stroke="none">
<path d="M5 2705 c0 -1490 1 -2099 2 -1352 2 747 2 1967 0 2710 -1 744 -2 133
-2 -1358z"/>
<path d="M1068 4991 c-37 -21 -71 -67 -81 -111 -9 -36 148 -1171 166 -1206 17
-32 40 -55 76 -74 20 -10 574 -38 801 -40 l45 0 -6 -173 c-3 -95 -8 -177 -12
-183 -3 -6 -37 -14 -74 -17 -403 -35 -813 -243 -1057 -536 -244 -294 -345
-585 -366 -1061 -21 -455 -41 -1122 -34 -1143 11 -37 55 -88 88 -102 37 -16
126 -21 563 -36 329 -11 332 -11 375 10 31 14 52 34 68 63 24 43 24 47 46 683
17 469 27 660 38 715 32 151 128 296 240 360 75 43 89 41 82 -12 -3 -24 -18
-420 -33 -881 l-27 -839 24 -46 c45 -82 38 -81 535 -99 411 -14 439 -14 475 2
48 22 78 62 89 122 6 26 22 428 38 892 20 629 31 845 40 848 20 8 127 -73 170
-129 50 -66 66 -97 89 -173 32 -110 33 -181 11 -828 l-21 -638 22 -42 c12 -23
38 -53 57 -66 34 -23 41 -24 469 -39 239 -8 445 -12 459 -8 37 9 88 55 104 93
14 36 53 945 53 1267 0 649 -293 1147 -835 1419 -142 71 -363 141 -508 163
l-49 7 6 111 c14 252 37 1033 31 1063 -7 39 -46 88 -86 109 -24 12 -137 19
-567 34 -295 11 -545 20 -555 20 -11 0 -26 19 -42 56 -52 118 -179 262 -297
337 -131 84 -249 117 -443 123 -116 4 -134 2 -167 -15z m339 -166 c35 -8 96
-31 135 -51 137 -69 286 -250 319 -387 6 -27 16 -50 23 -52 6 -2 218 -11 471
-19 253 -9 518 -19 588 -22 l128 -6 -6 -97 c-3 -53 -12 -305 -20 -561 -8 -256
-17 -500 -19 -542 l-5 -77 47 -6 c501 -67 836 -239 1071 -548 161 -212 258
-484 276 -777 5 -84 -30 -1309 -38 -1317 -4 -3 -790 27 -794 31 -2 2 3 185 12
407 29 796 30 881 6 994 -41 201 -150 361 -306 453 -78 45 -175 81 -245 89
l-47 5 -7 -123 c-3 -68 -17 -466 -31 -884 -14 -418 -28 -797 -31 -842 l-6 -81
-91 4 c-51 2 -229 9 -397 15 -167 5 -306 11 -307 13 -4 3 53 1713 61 1844 l5
82 -35 0 c-63 0 -178 -31 -261 -71 -182 -87 -311 -262 -358 -488 -19 -96 -24
-166 -40 -671 -8 -250 -17 -505 -21 -567 l-6 -112 -81 5 c-45 2 -224 9 -397
15 -173 6 -316 11 -317 12 -1 2 8 251 32 887 19 502 41 633 146 867 145 323
442 586 794 701 155 51 385 92 518 92 l44 0 6 113 c4 61 10 214 13 340 l7 227
-74 0 c-166 0 -863 30 -870 37 -3 5 -12 49 -18 98 -22 167 -50 378 -91 672
-22 161 -40 300 -40 309 0 15 10 16 98 10 53 -4 125 -14 159 -21z"/>
<path d="M3861 4361 c-21 -21 -25 -69 -41 -591 -5 -173 -12 -370 -16 -437 -6
-121 -6 -122 20 -147 24 -25 29 -26 154 -26 112 0 131 2 145 18 14 15 18 54
25 228 l7 209 175 -4 c96 -2 178 -5 182 -7 4 -3 4 -100 1 -217 -5 -199 -5
-213 13 -229 14 -12 49 -18 144 -23 116 -7 127 -6 149 12 l25 20 17 479 c22
607 23 655 5 680 -13 17 -29 19 -148 22 -105 3 -137 0 -153 -11 -18 -14 -20
-33 -28 -213 -4 -109 -10 -200 -12 -202 -2 -3 -84 -1 -181 3 l-177 7 6 197 c8
238 11 232 -94 242 -135 14 -197 11 -218 -10z"/>
</g>
</svg>
