<?xml version="1.0" standalone="no"?>
<!DOCTYPE svg PUBLIC "-//W3C//DTD SVG 20010904//EN"
 "http://www.w3.org/TR/2001/REC-SVG-20010904/DTD/svg10.dtd">
<svg version="1.0" xmlns="http://www.w3.org/2000/svg"
 width="556.000000pt" height="546.000000pt" viewBox="0 0 556.000000 546.000000"
 preserveAspectRatio="xMidYMid meet">

<g transform="translate(0.000000,546.000000) scale(0.100000,-0.100000)"
fill="#000000" stroke="none">
<path d="M0 2730 c0 -1813 3 -2730 10 -2730 7 0 10 917 10 2730 0 1813 -3
2730 -10 2730 -7 0 -10 -917 -10 -2730z"/>
<path d="M5530 2730 c0 -2420 2 -2730 15 -2730 13 0 15 310 15 2730 0 2420 -2
2730 -15 2730 -13 0 -15 -310 -15 -2730z"/>
<path d="M2306 4715 c-21 -7 -49 -24 -63 -37 -52 -47 -53 -58 -63 -531 -5
-243 -10 -514 -10 -602 l0 -160 -141 -23 c-188 -31 -347 -80 -504 -156 -480
-234 -774 -628 -871 -1171 -22 -120 -32 -389 -39 -1005 -6 -547 -6 -555 14
-587 11 -18 38 -44 59 -58 l39 -26 447 -8 c274 -5 461 -5 482 0 44 13 93 55
110 95 10 25 16 175 24 651 6 340 15 662 20 716 17 172 76 306 176 401 45 44
148 105 158 95 3 -2 1 -236 -5 -518 l-10 -513 22 -44 c14 -30 35 -52 63 -69
l43 -25 448 -9 c272 -5 461 -5 481 1 45 12 93 54 111 96 11 26 16 147 24 545
5 281 12 513 14 515 11 11 114 -60 163 -113 68 -72 105 -142 132 -249 18 -71
20 -111 20 -378 0 -228 3 -306 14 -331 20 -49 78 -95 128 -102 24 -3 241 -6
484 -8 l440 -2 38 29 c63 48 67 68 73 365 8 384 -14 571 -98 804 -184 516
-581 865 -1148 1008 -64 17 -142 32 -173 36 l-58 6 0 91 c0 50 5 324 11 609
10 517 10 519 -11 560 -11 23 -35 53 -52 67 -29 23 -42 25 -187 31 -333 15
-766 17 -805 4z m653 -170 c129 -3 235 -6 237 -8 2 -1 -1 -214 -6 -472 -5
-259 -10 -558 -10 -664 l-2 -195 156 -22 c631 -91 1064 -425 1241 -957 70
-211 90 -383 83 -714 -3 -128 -8 -236 -11 -239 -3 -3 -191 -2 -417 2 l-413 7
6 231 c5 231 -3 367 -28 461 -76 294 -283 477 -596 529 l-36 6 -7 -412 c-3
-227 -9 -500 -12 -605 l-7 -193 -222 0 c-122 0 -311 3 -420 7 l-197 6 6 141
c3 78 9 349 12 604 l7 462 -35 0 c-52 0 -196 -39 -258 -70 -188 -94 -307 -250
-366 -476 -25 -95 -26 -115 -35 -524 -5 -234 -13 -540 -17 -679 l-7 -255 -245
2 c-135 1 -321 5 -414 9 l-169 6 7 501 c9 651 19 872 46 1009 40 204 111 381
217 537 248 366 647 586 1143 631 69 6 130 13 136 14 8 2 13 148 18 482 3 263
9 562 13 665 l6 188 181 -5 c100 -3 286 -7 415 -10z"/>
<path d="M4325 4353 c-15 -14 -17 -35 -14 -152 l4 -136 -127 -3 -128 -3 0 139
c0 94 -4 142 -12 150 -8 8 -47 12 -108 12 -91 0 -97 -1 -107 -22 -16 -36 -1
-781 16 -802 10 -12 32 -16 98 -16 128 0 123 -7 123 170 l0 150 33 0 c19 0 75
3 125 6 l92 7 0 -136 c0 -75 4 -147 10 -161 9 -25 12 -26 104 -26 136 0 131
-10 123 220 -4 102 -7 276 -7 387 0 170 -2 204 -16 217 -23 24 -186 23 -209
-1z"/>
<path d="M4781 4169 c-85 -27 -158 -99 -190 -184 -32 -83 -26 -207 11 -280 32
-60 87 -115 148 -146 55 -28 175 -37 249 -19 106 25 197 122 227 240 39 152
-42 319 -185 383 -68 30 -179 33 -260 6z m154 -195 c11 -3 31 -21 44 -39 20
-30 23 -44 19 -92 -6 -70 -37 -103 -97 -103 -70 0 -116 80 -92 159 18 63 66
91 126 75z"/>
</g>
</svg>
