<?xml version="1.0" standalone="no"?>
<!DOCTYPE svg PUBLIC "-//W3C//DTD SVG 20010904//EN"
 "http://www.w3.org/TR/2001/REC-SVG-20010904/DTD/svg10.dtd">
<svg version="1.0" xmlns="http://www.w3.org/2000/svg"
 width="545.000000pt" height="544.000000pt" viewBox="0 0 545.000000 544.000000"
 preserveAspectRatio="xMidYMid meet">

<g transform="translate(0.000000,544.000000) scale(0.100000,-0.100000)"
fill="#000000" stroke="none">
<path d="M2034 4632 c-42 -27 -72 -67 -83 -111 -5 -20 -13 -298 -18 -618 -5
-320 -11 -585 -14 -588 -3 -3 -57 -14 -120 -24 -563 -93 -983 -378 -1223 -832
-80 -151 -132 -310 -167 -509 -22 -126 -35 -504 -41 -1196 l-3 -360 28 -37
c55 -72 43 -70 533 -81 242 -5 458 -6 479 -2 51 10 110 68 123 121 6 22 15
331 21 686 7 356 16 675 22 710 31 192 128 343 269 418 l60 32 0 -203 c-1
-112 -7 -525 -14 -918 -7 -395 -9 -728 -5 -745 11 -37 49 -79 92 -101 46 -24
920 -41 973 -19 38 16 81 58 97 95 6 16 16 360 26 937 9 501 19 915 23 919 11
10 44 -7 113 -59 70 -53 135 -145 164 -233 44 -132 45 -165 32 -873 -8 -486
-9 -676 -1 -697 15 -39 58 -83 97 -100 25 -11 136 -15 485 -21 512 -7 505 -8
555 68 31 47 30 22 43 795 8 404 7 617 0 700 -65 743 -524 1276 -1251 1453
-68 16 -146 33 -173 37 l-48 7 7 612 c7 571 6 614 -10 649 -21 44 -55 73 -104
86 -20 5 -238 12 -486 15 -436 7 -451 6 -481 -13z m616 -159 l303 -6 -7 -476
c-3 -262 -9 -562 -13 -668 l-6 -192 34 -5 c19 -3 77 -10 129 -17 404 -50 763
-232 989 -503 194 -232 300 -499 330 -831 6 -71 6 -267 1 -550 -5 -242 -9
-530 -10 -639 l0 -199 -417 7 c-230 4 -418 8 -420 10 -1 1 2 245 8 542 17 827
10 928 -72 1101 -97 204 -302 352 -525 379 l-51 6 -6 -203 c-4 -112 -11 -548
-17 -969 -6 -421 -13 -784 -16 -807 l-5 -42 -297 5 c-163 3 -351 7 -418 10
l-120 6 3 86 c1 48 7 398 13 777 5 380 13 795 16 923 l7 234 -59 -7 c-33 -4
-100 -20 -149 -36 -231 -73 -386 -245 -455 -504 -27 -103 -37 -308 -46 -968
l-7 -498 -411 7 c-226 3 -414 9 -418 13 -7 6 4 805 17 1187 13 424 126 740
357 999 260 292 599 450 1058 495 63 6 116 13 118 15 2 2 9 301 15 664 l11
661 116 0 c64 0 253 -3 420 -7z"/>
<path d="M4240 4183 c-24 -2 -50 -9 -57 -15 -9 -8 -13 -50 -13 -154 l0 -144
-124 0 -123 0 -7 77 c-3 42 -6 107 -6 144 0 59 -3 70 -21 80 -31 16 -184 8
-203 -11 -13 -13 -14 -68 -8 -415 4 -220 11 -406 15 -412 10 -15 194 -18 216
-4 12 8 14 39 12 165 l-2 156 130 0 131 0 0 -141 c0 -77 5 -149 10 -160 10
-17 22 -19 108 -19 63 0 102 4 110 12 9 9 15 9 24 0 17 -17 204 -16 215 1 4 6
21 50 38 97 l30 85 104 0 104 0 31 -80 c17 -44 35 -86 39 -93 11 -16 198 -17
215 0 7 7 12 21 12 33 0 21 -295 771 -313 793 -6 8 -39 12 -97 12 -70 0 -90
-3 -102 -17 -8 -10 -63 -155 -123 -323 -60 -168 -121 -336 -135 -374 l-27 -69
-6 258 c-4 142 -7 310 -7 374 0 64 -4 122 -9 130 -10 15 -84 22 -161 14z m610
-450 c0 -8 -15 -13 -40 -13 -22 0 -40 1 -40 3 0 1 9 27 20 57 11 30 20 57 20
60 1 10 40 -95 40 -107z"/>
</g>
</svg>
