<?xml version="1.0" standalone="no"?>
<!DOCTYPE svg PUBLIC "-//W3C//DTD SVG 20010904//EN"
 "http://www.w3.org/TR/2001/REC-SVG-20010904/DTD/svg10.dtd">
<svg version="1.0" xmlns="http://www.w3.org/2000/svg"
 width="546.000000pt" height="547.000000pt" viewBox="0 0 546.000000 547.000000"
 preserveAspectRatio="xMidYMid meet">

<g transform="translate(0.000000,547.000000) scale(0.100000,-0.100000)"
fill="#000000" stroke="none">
<path d="M1864 4670 c-35 -11 -79 -51 -100 -92 -11 -21 -19 -154 -34 -570 -11
-299 -20 -568 -20 -600 l0 -56 -62 -7 c-857 -94 -1427 -678 -1488 -1523 -5
-75 -14 -283 -20 -462 -6 -179 -15 -441 -21 -582 -9 -249 -9 -259 10 -297 22
-43 54 -72 98 -89 16 -7 212 -18 468 -26 l439 -16 44 21 c25 13 54 38 69 61
l27 39 22 632 c12 348 25 659 28 693 15 152 76 293 164 382 55 55 164 123 177
110 3 -3 1 -133 -4 -289 -31 -816 -43 -1191 -44 -1368 -2 -191 -1 -197 21
-229 50 -70 53 -70 543 -88 332 -12 452 -13 480 -5 46 14 95 68 108 118 5 21
23 438 40 927 17 489 33 891 35 894 9 8 93 -47 140 -92 63 -61 102 -126 133
-221 26 -77 27 -89 27 -295 0 -118 -8 -437 -18 -708 -10 -271 -15 -508 -12
-527 4 -19 18 -48 33 -65 51 -61 47 -61 532 -78 246 -8 458 -12 473 -9 15 4
40 18 56 32 59 50 60 56 76 506 9 228 18 488 22 578 l7 164 35 -68 c45 -84
150 -198 239 -258 80 -53 187 -97 290 -121 103 -23 332 -33 375 -16 70 28 108
84 108 160 0 22 -13 129 -30 237 -16 109 -45 308 -65 443 -20 135 -43 294 -52
353 -18 123 -37 160 -99 194 -38 21 -61 23 -457 38 -230 8 -449 15 -486 15
l-67 0 -64 98 c-136 205 -377 412 -615 526 -147 71 -356 138 -504 161 l-44 7
7 242 c4 132 14 403 21 601 14 389 14 398 -37 452 -43 46 -84 52 -428 63 -179
5 -374 12 -435 14 -60 3 -124 1 -141 -4z m595 -180 c157 -6 286 -11 287 -13 1
-1 -9 -299 -21 -662 -13 -362 -23 -660 -22 -661 1 0 45 -6 97 -12 270 -33 549
-136 760 -281 144 -99 348 -332 416 -474 l17 -35 111 -6 c61 -3 260 -11 441
-16 182 -6 366 -13 411 -16 l80 -5 22 -152 c12 -84 46 -320 77 -525 30 -205
55 -379 55 -387 0 -29 -236 -12 -342 24 -115 39 -172 75 -253 156 -79 79 -130
162 -149 240 -4 16 -13 33 -19 37 -7 4 -73 8 -147 8 l-135 0 -3 -134 c-8 -324
-40 -1147 -45 -1152 -8 -8 -804 19 -812 28 -4 4 3 285 15 625 12 345 19 657
15 707 -29 374 -244 617 -602 680 l-31 5 -6 -62 c-3 -34 -8 -141 -10 -237 -13
-418 -58 -1695 -61 -1698 -3 -4 -572 15 -724 24 l-104 6 7 197 c31 856 63
1796 61 1799 -6 7 -167 -23 -227 -43 -179 -61 -323 -199 -398 -384 -61 -149
-67 -208 -91 -901 -12 -349 -24 -638 -28 -642 -5 -5 -812 20 -818 26 -3 3 35
1079 42 1206 15 261 65 461 161 653 102 202 258 378 449 507 230 155 500 240
846 265 l87 7 6 106 c3 59 13 332 21 607 9 275 18 524 21 553 l6 54 126 -6
c70 -4 255 -11 411 -16z"/>
<path d="M3479 4414 c-11 -13 -17 -98 -26 -358 -6 -188 -13 -396 -16 -464 -6
-161 -8 -159 133 -167 150 -10 143 -18 151 197 4 95 7 174 8 176 2 5 228 1
263 -4 l37 -6 -6 -174 c-5 -128 -3 -177 6 -188 16 -19 209 -33 239 -17 29 15
30 28 42 391 5 173 13 372 16 441 8 169 8 169 -145 169 -78 0 -112 -4 -119
-13 -7 -8 -15 -85 -19 -178 l-8 -164 -37 1 c-21 0 -88 1 -149 2 l-111 2 3 171
c5 209 12 199 -142 199 -87 0 -109 -3 -120 -16z"/>
<path d="M4410 4385 c-18 -22 -36 -512 -22 -615 33 -249 192 -390 442 -390
202 0 337 91 405 274 31 82 41 183 50 477 6 197 5 216 -10 229 -12 10 -51 16
-124 18 -147 5 -138 21 -146 -253 -10 -348 -25 -419 -100 -465 -30 -18 -47
-22 -95 -18 -69 5 -93 22 -124 88 -19 41 -21 60 -19 235 1 105 5 236 9 292 5
94 4 103 -15 122 -19 19 -33 21 -130 21 -85 0 -111 -3 -121 -15z"/>
</g>
</svg>
