<?xml version="1.0" standalone="no"?>
<!DOCTYPE svg PUBLIC "-//W3C//DTD SVG 20010904//EN"
 "http://www.w3.org/TR/2001/REC-SVG-20010904/DTD/svg10.dtd">
<svg version="1.0" xmlns="http://www.w3.org/2000/svg"
 width="543.000000pt" height="537.000000pt" viewBox="0 0 543.000000 537.000000"
 preserveAspectRatio="xMidYMid meet">

<g transform="translate(0.000000,537.000000) scale(0.100000,-0.100000)"
fill="#000000" stroke="none">
<path d="M3972 4551 c-97 -5 -116 -9 -128 -25 -11 -16 -14 -64 -14 -226 l0
-207 -181 -7 c-100 -4 -185 -4 -190 1 -4 4 -9 99 -11 209 -4 263 8 247 -185
242 -128 -3 -144 -5 -158 -23 -14 -18 -15 -69 -10 -470 3 -247 8 -517 11 -598
9 -199 1 -191 188 -183 114 6 142 10 152 24 10 13 13 73 14 238 0 193 2 223
16 228 9 3 93 6 188 6 l173 0 7 -222 c5 -184 9 -225 23 -240 14 -16 34 -18
153 -18 119 0 141 3 161 18 l22 19 -11 598 c-10 557 -12 599 -29 616 -24 24
-54 27 -191 20z"/>
<path d="M1690 4302 c-19 -9 -44 -31 -56 -49 -25 -38 -28 -82 -44 -623 -6
-195 -13 -378 -16 -406 l-5 -51 -94 -12 c-558 -73 -986 -406 -1157 -901 -70
-202 -81 -304 -104 -1006 -20 -578 -21 -562 44 -612 39 -30 49 -31 602 -47
l235 -7 35 24 c64 43 68 60 80 398 32 915 33 919 98 1043 19 38 56 89 80 113
42 42 138 101 149 91 2 -3 -5 -270 -16 -594 -37 -1048 -36 -974 -17 -1013 9
-19 31 -45 49 -57 32 -22 47 -23 427 -37 434 -16 433 -16 482 42 34 41 33 16
63 886 13 401 27 731 30 734 11 11 79 -35 129 -88 66 -69 105 -151 123 -260
13 -76 12 -148 -6 -655 -17 -494 -18 -573 -6 -603 17 -39 48 -68 90 -81 17 -5
268 -17 558 -27 552 -18 640 -16 821 22 355 73 639 285 740 553 47 124 59 196
59 351 0 171 -19 256 -84 389 -32 64 -62 105 -124 170 -153 158 -332 242 -620
291 -51 8 -400 29 -502 30 -18 0 -33 5 -33 11 0 6 -16 43 -36 82 -117 234
-319 436 -566 566 -139 73 -323 134 -471 156 l-48 7 7 142 c18 429 30 875 23
904 -10 46 -34 79 -72 99 -27 14 -89 19 -377 29 -447 17 -429 17 -470 -4z
m613 -149 l169 -6 -6 -141 c-10 -220 -26 -717 -29 -866 l-2 -134 85 -12 c499
-66 873 -323 1042 -715 21 -49 38 -93 38 -98 0 -12 88 -21 205 -21 470 -1 753
-80 936 -262 130 -130 187 -295 176 -518 -15 -329 -205 -561 -553 -675 -143
-47 -277 -65 -490 -65 -222 1 -933 26 -941 34 -3 3 2 211 11 463 20 561 20
701 1 791 -51 245 -212 412 -449 468 -42 10 -78 15 -81 12 -3 -3 -19 -390 -36
-859 -16 -469 -31 -855 -33 -857 -7 -6 -700 20 -707 27 -4 3 -1 177 7 386 7
209 20 571 29 806 8 234 15 448 15 476 l0 51 -42 -5 c-270 -31 -458 -197 -528
-463 -23 -87 -33 -250 -51 -830 -6 -217 -15 -398 -18 -401 -6 -6 -700 16 -706
23 -2 1 1 107 5 233 5 127 14 374 20 550 12 344 25 460 65 600 61 210 154 367
304 515 226 224 514 345 868 367 l103 6 4 31 c5 29 37 986 36 1070 l0 39 193
-7 c105 -3 268 -9 360 -13z"/>
<path d="M3678 1674 c-3 -5 -9 -132 -13 -281 l-7 -273 100 0 c169 0 311 37
376 98 49 46 76 117 76 200 0 186 -93 247 -396 259 -72 3 -134 2 -136 -3z
m297 -158 c79 -19 99 -43 91 -111 -7 -65 -41 -99 -121 -120 -32 -8 -76 -15
-97 -15 l-38 0 0 84 c0 46 3 104 6 130 l7 46 46 0 c25 0 73 -7 106 -14z"/>
<path d="M4590 4264 c-94 -25 -161 -64 -230 -133 -78 -79 -117 -154 -136 -265
-36 -203 46 -402 210 -508 88 -56 171 -80 291 -81 113 -1 189 17 272 64 84 48
193 179 193 231 0 24 -26 52 -61 64 l-34 12 47 1 c72 1 88 24 88 126 0 241
-142 431 -366 489 -76 20 -200 20 -274 0z m187 -285 c15 -6 39 -20 51 -32 l24
-22 -124 -5 c-67 -3 -125 -4 -127 -3 -7 5 24 36 54 55 34 20 80 23 122 7z m87
-351 c-11 -30 -74 -58 -127 -58 -40 0 -63 6 -87 23 -63 42 -53 47 89 47 100 0
129 -3 125 -12z"/>
</g>
</svg>
