<?xml version="1.0" standalone="no"?>
<!DOCTYPE svg PUBLIC "-//W3C//DTD SVG 20010904//EN"
 "http://www.w3.org/TR/2001/REC-SVG-20010904/DTD/svg10.dtd">
<svg version="1.0" xmlns="http://www.w3.org/2000/svg"
 width="543.000000pt" height="541.000000pt" viewBox="0 0 543.000000 541.000000"
 preserveAspectRatio="xMidYMid meet">

<g transform="translate(0.000000,541.000000) scale(0.100000,-0.100000)"
fill="#000000" stroke="none">
<path d="M4542 4567 c-20 -21 -22 -34 -22 -153 0 -101 3 -134 16 -152 14 -20
14 -24 -1 -38 -13 -14 -15 -43 -10 -222 3 -114 7 -315 10 -447 5 -202 8 -242
22 -257 14 -16 34 -18 154 -18 196 0 179 -43 172 433 -2 210 -9 414 -14 452
-5 39 -9 77 -9 85 1 8 4 76 6 150 5 127 4 138 -16 163 -21 27 -22 27 -154 27
-126 0 -134 -1 -154 -23z"/>
<path d="M4123 4540 c-42 -17 -46 -41 -42 -254 l4 -201 -192 -3 -192 -2 -3
209 c-3 187 -5 212 -21 228 -16 16 -35 18 -145 16 -148 -3 -168 -6 -182 -33
-8 -14 -8 -192 0 -608 9 -486 14 -591 26 -609 14 -22 20 -23 159 -23 196 0
184 -18 177 269 l-5 220 190 3 190 3 7 -119 c3 -66 6 -166 6 -223 0 -144 -1
-143 175 -143 189 0 175 -22 174 283 -1 133 -4 402 -8 598 -6 332 -7 358 -25
378 -18 19 -29 21 -145 20 -69 0 -136 -4 -148 -9z"/>
<path d="M1787 4076 c-48 -18 -62 -29 -81 -70 -14 -30 -16 -98 -16 -544 l0
-510 -97 -17 c-217 -38 -419 -115 -575 -218 -291 -191 -486 -474 -563 -814
-38 -167 -47 -347 -43 -910 3 -501 3 -512 24 -540 11 -15 36 -38 54 -50 33
-23 35 -23 417 -23 358 0 386 1 421 19 20 11 46 34 57 53 19 32 20 56 25 648
5 606 5 616 27 674 48 127 116 211 207 256 l41 20 5 -789 c5 -779 5 -790 26
-818 46 -62 50 -63 472 -63 419 0 414 -1 466 60 l26 32 0 789 c0 434 2 789 5
789 3 0 24 -9 47 -21 55 -28 136 -112 170 -175 60 -111 61 -123 67 -786 l6
-606 25 -27 c50 -55 51 -55 555 -55 266 0 465 -4 465 -9 0 -18 94 -113 154
-155 125 -89 223 -123 391 -137 153 -13 206 -6 251 33 62 54 62 77 9 314 -25
115 -55 243 -66 286 l-19 76 66 284 c39 170 63 296 60 315 -7 45 -33 81 -77
104 -65 33 -285 24 -407 -17 -129 -44 -258 -130 -333 -221 -28 -35 -50 -53
-65 -53 l-22 0 -5 263 c-5 267 -15 358 -56 505 -64 229 -172 414 -335 577
-201 201 -468 332 -781 385 l-100 17 -5 524 c-5 480 -7 527 -23 552 -41 63
-34 62 -452 64 -300 2 -388 0 -418 -11z m753 -700 l0 -563 80 -6 c203 -16 438
-86 603 -179 308 -176 504 -465 572 -843 12 -65 18 -180 22 -407 l6 -318 141
0 142 0 14 37 c22 63 123 154 220 201 47 22 108 45 135 51 64 14 234 21 241
10 2 -4 -23 -128 -56 -273 -33 -146 -60 -279 -60 -295 0 -17 9 -70 21 -118 41
-178 99 -437 99 -446 0 -19 -230 -2 -300 22 -133 46 -256 141 -298 233 l-17
37 -495 3 -495 3 -6 595 c-5 581 -6 597 -28 670 -34 112 -78 187 -156 266 -93
95 -197 146 -342 169 l-43 7 -2 -854 -3 -853 -350 0 -350 0 -3 853 c-1 468 -5
852 -7 852 -3 0 -41 -7 -83 -16 -229 -46 -387 -201 -455 -443 -20 -72 -21
-104 -27 -661 l-5 -585 -347 -3 -348 -2 0 563 c0 577 4 666 41 812 106 422
412 735 843 859 75 22 215 47 339 62 l47 5 0 560 0 559 355 0 355 0 0 -564z"/>
</g>
</svg>
