<?xml version="1.0" standalone="no"?>
<!DOCTYPE svg PUBLIC "-//W3C//DTD SVG 20010904//EN"
 "http://www.w3.org/TR/2001/REC-SVG-20010904/DTD/svg10.dtd">
<svg version="1.0" xmlns="http://www.w3.org/2000/svg"
 width="263.000000pt" height="253.000000pt" viewBox="0 0 263.000000 253.000000"
 preserveAspectRatio="xMidYMid meet">

<g transform="translate(0.000000,253.000000) scale(0.100000,-0.100000)"
fill="#000000" stroke="none">
<path d="M1068 2125 c-19 -11 -34 -35 -53 -87 -15 -40 -47 -122 -70 -183 -24
-60 -69 -179 -101 -262 -32 -84 -62 -153 -66 -153 -21 0 -28 68 -33 332 -4
156 -11 295 -16 309 -18 47 -39 51 -270 47 -241 -3 -263 -9 -274 -71 -4 -18
-2 -172 3 -342 7 -231 14 -325 26 -368 48 -174 164 -304 326 -367 30 -12 56
-23 58 -25 4 -4 -43 -131 -145 -385 l-77 -195 2 -130 c1 -72 5 -138 8 -148 13
-42 37 -44 449 -36 447 8 502 15 633 80 147 72 236 188 263 343 33 194 -34
381 -174 480 -76 53 -149 81 -252 95 -43 6 -80 13 -82 14 -1 2 29 86 68 188
151 396 182 477 254 662 50 131 54 163 25 195 -20 21 -27 22 -248 22 -178 -1
-233 -4 -254 -15z m436 -63 c2 -4 -85 -243 -195 -531 -109 -288 -199 -528
-199 -534 0 -8 17 -11 50 -9 28 2 87 -1 132 -7 156 -21 279 -103 334 -224 27
-57 29 -71 29 -177 0 -109 -2 -118 -32 -181 -36 -73 -105 -144 -174 -179 -128
-66 -230 -78 -681 -82 l-307 -3 -7 73 c-9 101 -4 128 55 282 159 413 191 496
193 508 2 9 -23 21 -72 36 -126 37 -228 110 -287 206 -11 19 -31 67 -43 105
-20 62 -23 104 -32 378 -5 170 -8 310 -6 312 2 2 91 5 198 7 l195 3 8 -275 c4
-151 12 -294 18 -317 13 -49 64 -106 108 -121 39 -14 31 -31 165 323 59 154
117 307 130 340 l24 60 168 5 c93 3 181 7 196 8 15 1 29 -2 32 -6z"/>
<path d="M993 703 c-4 -10 -30 -79 -59 -153 l-52 -135 91 -3 c197 -6 297 51
297 171 0 98 -54 137 -191 137 -67 0 -81 -3 -86 -17z m181 -79 c18 -18 21 -56
6 -84 -6 -11 -33 -26 -62 -35 -55 -16 -122 -20 -116 -7 2 4 14 38 27 75 l25
67 52 0 c34 0 58 -5 68 -16z"/>
<path d="M1845 498 c-3 -13 -4 -81 -3 -153 l3 -130 42 -3 42 -3 3 58 3 58 45
0 45 0 3 -57 3 -58 39 0 40 0 0 155 0 155 -40 0 -40 0 0 -55 0 -55 -50 0 -50
0 0 55 0 55 -40 0 c-33 0 -41 -4 -45 -22z"/>
<path d="M2147 514 c-4 -4 -7 -74 -7 -156 l0 -148 116 0 115 0 -3 38 -3 37
-67 3 c-59 3 -68 5 -68 22 0 16 9 19 58 22 56 3 57 3 60 35 l3 32 -58 3 c-45
2 -59 7 -61 20 -3 14 7 18 65 20 l68 3 0 35 0 35 -106 3 c-58 1 -108 -1 -112
-4z"/>
</g>
</svg>
