<?xml version="1.0" standalone="no"?>
<!DOCTYPE svg PUBLIC "-//W3C//DTD SVG 20010904//EN"
 "http://www.w3.org/TR/2001/REC-SVG-20010904/DTD/svg10.dtd">
<svg version="1.0" xmlns="http://www.w3.org/2000/svg"
 width="192.000000pt" height="181.000000pt" viewBox="0 0 192.000000 181.000000"
 preserveAspectRatio="xMidYMid meet">

<g transform="translate(0.000000,181.000000) scale(0.100000,-0.100000)"
fill="#000000" stroke="none">
<path d="M126 1714 c-14 -13 -16 -51 -16 -259 0 -141 5 -266 11 -297 27 -130
108 -232 222 -283 37 -17 67 -33 67 -37 0 -3 -40 -106 -90 -228 l-90 -222 0
-92 c0 -146 -23 -136 309 -136 l277 0 22 -30 c13 -16 46 -43 75 -60 48 -27 60
-30 148 -30 132 0 130 -4 95 164 l-27 133 26 117 c15 64 25 126 23 138 -5 35
-44 50 -113 44 -87 -7 -148 -32 -204 -82 -43 -39 -55 -44 -95 -44 -25 0 -46 1
-46 3 0 1 14 36 31 77 155 379 429 1073 429 1088 0 10 -8 26 -18 35 -16 15
-45 17 -200 17 -177 0 -182 -1 -196 -22 -8 -13 -56 -126 -107 -253 -50 -126
-96 -234 -100 -239 -20 -23 -29 58 -29 263 0 198 -2 219 -18 234 -27 25 -362
25 -386 1z m346 -271 c3 -204 5 -231 22 -260 23 -37 81 -73 94 -58 5 6 57 129
115 274 59 145 108 265 110 268 2 2 72 2 154 1 l150 -3 -179 -445 c-98 -245
-207 -517 -242 -605 l-64 -160 112 -3 c97 -2 112 0 123 15 43 63 112 101 200
110 55 6 56 6 50 -18 -4 -13 -16 -70 -28 -126 l-22 -103 22 -102 c13 -57 25
-111 28 -120 4 -16 -3 -18 -49 -18 -70 0 -145 36 -188 89 l-33 41 -279 0 -278
0 0 78 c0 82 15 127 161 470 21 51 39 99 39 106 0 8 -20 19 -47 25 -91 23
-174 82 -217 155 -48 81 -56 140 -56 388 l0 228 149 0 150 0 3 -227z"/>
<path d="M1290 320 l0 -190 49 0 c57 0 61 6 61 85 0 60 5 64 68 57 l42 -4 0
-69 0 -69 55 0 55 0 -2 187 -3 188 -50 0 -50 0 -3 -67 -3 -68 -54 0 -55 0 0
54 c0 80 -4 86 -61 86 l-49 0 0 -190z"/>
<path d="M1650 320 l0 -191 53 3 52 3 0 185 0 185 -52 3 -53 3 0 -191z"/>
</g>
</svg>
