<?xml version="1.0" standalone="no"?>
<!DOCTYPE svg PUBLIC "-//W3C//DTD SVG 20010904//EN"
 "http://www.w3.org/TR/2001/REC-SVG-20010904/DTD/svg10.dtd">
<svg version="1.0" xmlns="http://www.w3.org/2000/svg"
 width="313.000000pt" height="255.000000pt" viewBox="0 0 313.000000 255.000000"
 preserveAspectRatio="xMidYMid meet">

<g transform="translate(0.000000,255.000000) scale(0.100000,-0.100000)"
fill="#000000" stroke="none">
<path d="M1865 2440 c-118 -7 -384 -51 -437 -71 -59 -24 -58 -8 -58 -801 0
-760 -3 -818 -46 -883 -36 -56 -121 -72 -182 -35 -45 28 -71 91 -82 198 -6 48
-10 409 -10 803 l0 716 -23 21 c-23 21 -30 22 -284 22 l-262 0 -20 -26 c-21
-26 -21 -33 -21 -783 0 -464 4 -789 10 -840 13 -103 51 -225 98 -316 43 -83
171 -217 246 -258 154 -85 354 -115 563 -86 263 37 463 193 563 442 51 129 70
273 70 546 l0 237 148 12 c231 17 370 69 483 182 66 66 103 133 130 238 65
256 -37 499 -259 611 -143 73 -302 90 -627 71z m392 -91 c262 -36 423 -203
423 -437 0 -91 -20 -176 -57 -245 -30 -55 -117 -138 -172 -166 -106 -54 -257
-80 -453 -81 l-96 0 -5 -332 c-4 -327 -4 -335 -31 -428 -75 -260 -238 -416
-486 -466 -123 -24 -316 -15 -425 20 -220 71 -359 246 -409 515 -14 71 -16
198 -16 842 l0 759 214 0 215 0 4 -762 c3 -689 5 -769 21 -823 41 -142 108
-200 231 -199 74 0 123 18 159 58 31 35 64 117 75 186 7 41 11 332 11 782 l0
716 28 6 c146 29 271 49 346 56 142 11 337 11 423 -1z"/>
<path d="M1935 2052 l-30 -7 -3 -163 -2 -162 63 0 c193 0 278 60 279 196 1 59
-16 93 -59 121 -28 19 -189 28 -248 15z m206 -92 c25 -14 25 -69 0 -102 -20
-25 -79 -48 -125 -48 -26 0 -26 0 -26 80 l0 80 66 0 c36 0 74 -5 85 -10z"/>
<path d="M2072 742 c-9 -7 -12 -70 -10 -283 l3 -274 61 -3 c42 -2 64 1 72 11
6 7 13 56 14 108 l3 94 80 0 80 0 3 -94 c1 -52 8 -101 14 -108 6 -8 33 -13 69
-13 45 0 60 4 68 17 5 10 9 132 9 271 0 207 -3 256 -15 268 -18 17 -114 19
-131 2 -8 -8 -12 -46 -12 -105 l0 -93 -85 0 -85 0 0 93 c0 59 -4 97 -12 105
-13 13 -106 16 -126 4z"/>
<path d="M2742 731 c-204 -71 -252 -363 -79 -495 171 -130 417 -18 434 198 8
96 -18 167 -83 233 -79 79 -168 100 -272 64z m156 -156 c109 -92 15 -294 -112
-241 -42 17 -63 48 -72 102 -19 122 98 211 184 139z"/>
</g>
</svg>
