<?xml version="1.0" standalone="no"?>
<!DOCTYPE svg PUBLIC "-//W3C//DTD SVG 20010904//EN"
 "http://www.w3.org/TR/2001/REC-SVG-20010904/DTD/svg10.dtd">
<svg version="1.0" xmlns="http://www.w3.org/2000/svg"
 width="264.000000pt" height="225.000000pt" viewBox="0 0 264.000000 225.000000"
 preserveAspectRatio="xMidYMid meet">

<g transform="translate(0.000000,225.000000) scale(0.100000,-0.100000)"
fill="#000000" stroke="none">
<path d="M209 2211 l-24 -19 -3 -649 c-2 -390 1 -704 7 -789 19 -250 79 -402
211 -535 129 -131 268 -182 495 -183 241 -1 397 54 530 188 133 135 200 313
212 569 l6 117 26 0 c21 0 31 -9 50 -45 60 -114 201 -185 366 -185 89 0 115
16 115 68 0 73 -97 573 -116 593 -15 17 -35 19 -228 21 l-211 3 -5 411 c-5
387 -6 413 -24 433 -18 20 -28 21 -257 21 l-238 0 -20 -26 c-21 -26 -21 -33
-21 -744 0 -443 -4 -738 -10 -771 -23 -122 -72 -173 -163 -171 -85 2 -134 58
-156 177 -7 39 -11 301 -11 776 l0 718 -26 20 c-25 20 -39 21 -254 21 -209 0
-230 -2 -251 -19z m464 -778 c3 -496 8 -744 16 -778 29 -127 96 -195 200 -203
148 -11 227 71 250 258 7 52 11 348 11 767 l0 683 210 0 210 0 2 -431 3 -430
227 1 c127 0 229 -3 232 -8 5 -9 23 -100 79 -405 20 -108 22 -130 10 -134 -29
-11 -159 4 -204 24 -62 28 -121 83 -150 140 -13 27 -28 51 -34 55 -12 9 -127
10 -149 2 -13 -5 -16 -26 -16 -125 0 -378 -145 -623 -424 -716 -75 -25 -93
-27 -246 -27 -161 0 -167 1 -250 32 -190 72 -308 210 -368 429 l-26 98 -4 748
-3 747 210 0 210 0 4 -727z"/>
<path d="M2018 529 c-14 -8 -18 -24 -18 -74 l0 -65 -60 0 -60 0 0 70 0 70 -55
0 -55 0 2 -202 3 -203 29 -3 c15 -2 39 -1 52 2 23 6 24 11 24 81 l0 75 60 0
60 0 0 -68 c0 -40 5 -73 12 -80 15 -15 63 -16 89 -2 18 10 19 23 19 200 0 104
-3 191 -7 193 -20 11 -80 15 -95 6z"/>
<path d="M2161 529 c-24 -9 -24 -10 -19 -142 4 -117 7 -138 28 -175 31 -54 75
-82 142 -88 77 -8 134 24 168 91 23 46 25 61 25 180 l0 130 -36 6 c-20 3 -46
2 -58 -2 -20 -8 -21 -15 -21 -134 0 -112 -2 -127 -20 -145 -26 -26 -64 -25
-90 2 -18 19 -20 35 -20 145 0 123 0 124 -26 133 -30 12 -41 12 -73 -1z"/>
</g>
</svg>
