<?xml version="1.0" standalone="no"?>
<!DOCTYPE svg PUBLIC "-//W3C//DTD SVG 20010904//EN"
 "http://www.w3.org/TR/2001/REC-SVG-20010904/DTD/svg10.dtd">
<svg version="1.0" xmlns="http://www.w3.org/2000/svg"
 width="547.000000pt" height="539.000000pt" viewBox="0 0 547.000000 539.000000"
 preserveAspectRatio="xMidYMid meet">

<g transform="translate(0.000000,539.000000) scale(0.100000,-0.100000)"
fill="#000000" stroke="none">
<path d="M0 2695 c0 -2389 2 -2695 15 -2695 13 0 15 306 15 2695 0 2389 -2
2695 -15 2695 -13 0 -15 -306 -15 -2695z"/>
<path d="M1605 4661 c-65 -27 -114 -117 -99 -184 4 -18 69 -208 145 -424 77
-215 139 -393 139 -395 0 -2 -47 -28 -104 -57 -117 -60 -275 -173 -387 -279
-339 -317 -645 -890 -865 -1617 -127 -418 -285 -1128 -270 -1209 10 -52 65
-111 118 -124 42 -11 826 -68 1088 -79 436 -19 799 98 1033 333 147 147 250
360 273 565 4 33 9 61 13 63 3 2 37 -78 75 -177 227 -594 318 -825 334 -846
36 -48 66 -63 153 -72 191 -20 852 -61 885 -55 79 15 144 112 129 192 -3 18
-53 158 -110 311 -57 153 -203 546 -325 873 -122 327 -306 822 -410 1100 -104
278 -275 737 -380 1020 -328 883 -343 922 -368 952 -50 59 -26 55 -632 98
-303 21 -403 24 -435 11z m510 -186 c204 -14 384 -28 400 -30 30 -5 32 -10
139 -298 60 -160 198 -533 308 -827 110 -294 248 -665 308 -825 59 -159 144
-387 188 -505 44 -118 109 -294 145 -390 36 -96 101 -272 145 -390 44 -118
137 -367 206 -553 69 -185 129 -349 132 -363 l7 -26 -69 6 c-38 3 -168 13
-289 21 -286 20 -499 36 -502 39 -2 2 -139 358 -318 826 -188 493 -364 953
-417 1090 -32 85 -79 207 -103 270 -137 362 -143 375 -162 372 -36 -6 -147
-63 -208 -106 -123 -88 -266 -262 -372 -451 -61 -109 -62 -102 20 -110 103
-10 265 -51 359 -91 211 -90 369 -252 441 -451 71 -196 60 -479 -27 -692 -84
-207 -285 -384 -522 -461 -242 -78 -379 -82 -1054 -35 -294 21 -536 39 -538
40 -3 2 62 324 98 485 186 838 466 1533 783 1949 205 268 480 477 745 565 l51
17 -55 157 c-31 86 -75 213 -99 282 -24 69 -73 208 -109 309 -36 102 -66 188
-66 193 0 12 26 11 435 -17z m144 -2079 c51 -131 90 -240 88 -243 -3 -2 -34
16 -69 41 -86 60 -214 120 -315 148 -46 13 -83 27 -83 31 0 30 142 194 224
259 45 36 51 38 57 21 4 -10 48 -125 98 -257z"/>
<path d="M1346 1569 c-58 -190 -137 -475 -139 -505 l-2 -29 70 -3 c96 -5 237
13 315 40 51 17 77 34 121 77 63 63 86 116 95 221 18 190 -89 287 -335 306
l-89 7 -36 -114z m226 -81 c56 -17 72 -45 63 -112 -12 -97 -63 -145 -169 -161
-44 -7 -48 -6 -43 11 3 11 22 76 43 147 40 137 38 136 106 115z"/>
<path d="M4474 1423 c-96 -3 -114 -6 -129 -23 -17 -19 -18 -50 -9 -614 9 -571
10 -595 29 -617 l20 -22 430 7 c405 5 430 7 448 25 21 20 22 35 19 179 -3 144
15 137 -314 128 l-268 -7 0 23 c-1 13 -5 216 -10 452 -8 395 -10 431 -27 447
-23 22 -53 26 -189 22z"/>
</g>
</svg>
