<?xml version="1.0" standalone="no"?>
<!DOCTYPE svg PUBLIC "-//W3C//DTD SVG 20010904//EN"
 "http://www.w3.org/TR/2001/REC-SVG-20010904/DTD/svg10.dtd">
<svg version="1.0" xmlns="http://www.w3.org/2000/svg"
 width="553.000000pt" height="541.000000pt" viewBox="0 0 553.000000 541.000000"
 preserveAspectRatio="xMidYMid meet">

<g transform="translate(0.000000,541.000000) scale(0.100000,-0.100000)"
fill="#000000" stroke="none">
<path d="M5510 2705 c0 -1797 3 -2705 10 -2705 7 0 10 908 10 2705 0 1797 -3
2705 -10 2705 -7 0 -10 -908 -10 -2705z"/>
<path d="M1382 4748 c-39 -13 -89 -60 -103 -95 -19 -50 -6 -119 86 -483 53
-206 98 -388 101 -405 5 -28 2 -32 -64 -67 -152 -81 -331 -244 -459 -416 -249
-336 -452 -824 -618 -1491 -53 -210 -45 -268 42 -325 35 -23 59 -26 343 -51
653 -58 635 -57 689 -17 41 30 60 73 87 189 37 165 100 390 153 546 48 141
141 371 148 364 3 -3 56 -221 254 -1037 22 -91 83 -340 135 -555 52 -214 102
-419 110 -455 23 -96 32 -116 74 -154 27 -24 52 -36 82 -40 135 -18 871 -77
911 -73 84 8 147 75 147 157 0 27 -58 281 -134 591 -235 950 -483 1955 -550
2229 -213 869 -347 1404 -357 1423 -21 40 -63 77 -99 87 -19 5 -219 25 -445
45 -225 19 -430 37 -455 39 -25 3 -60 0 -78 -6z m525 -203 c218 -20 398 -37
400 -38 1 -2 77 -306 168 -677 91 -371 207 -839 256 -1040 50 -201 133 -538
185 -750 52 -212 140 -567 195 -790 199 -808 220 -892 216 -897 -5 -4 -849 67
-855 72 -2 2 -23 84 -47 182 -73 297 -302 1238 -339 1393 -19 80 -64 264 -100
410 -35 146 -76 316 -91 378 -15 61 -30 112 -34 112 -4 0 -25 -19 -48 -42
-160 -167 -342 -611 -478 -1167 l-38 -154 -91 7 c-290 22 -736 63 -742 69 -9
9 74 335 138 539 211 679 464 1106 793 1341 61 43 166 98 257 135 24 10 26 14
18 39 -12 37 -230 896 -230 906 0 12 51 9 467 -28z"/>
<path d="M3636 1228 c-14 -20 -16 -84 -16 -498 0 -414 2 -478 16 -498 l15 -22
459 0 c533 0 468 -17 521 136 l33 94 126 0 126 0 33 -93 c52 -145 41 -137 181
-137 125 0 150 8 150 50 0 10 -29 94 -64 186 -35 93 -114 302 -176 464 -61
162 -118 305 -126 318 -14 21 -21 22 -123 22 -75 0 -112 -4 -118 -12 -10 -12
-94 -231 -235 -606 -56 -148 -64 -163 -82 -158 -12 3 -117 6 -233 6 l-213 0 0
373 c0 277 -3 376 -12 385 -8 8 -51 12 -129 12 -110 0 -119 -1 -133 -22z
m1178 -470 c10 -29 21 -59 23 -65 4 -10 -9 -13 -47 -13 -38 0 -51 3 -47 13 2
6 13 36 23 65 10 28 21 52 24 52 3 0 14 -24 24 -52z"/>
</g>
</svg>
