<?xml version="1.0" standalone="no"?>
<!DOCTYPE svg PUBLIC "-//W3C//DTD SVG 20010904//EN"
 "http://www.w3.org/TR/2001/REC-SVG-20010904/DTD/svg10.dtd">
<svg version="1.0" xmlns="http://www.w3.org/2000/svg"
 width="547.000000pt" height="530.000000pt" viewBox="0 0 547.000000 530.000000"
 preserveAspectRatio="xMidYMid meet">

<g transform="translate(0.000000,530.000000) scale(0.100000,-0.100000)"
fill="#000000" stroke="none">
<path d="M1075 4761 c-75 -45 -107 -117 -88 -201 8 -36 241 -708 282 -812 10
-26 8 -29 -58 -73 -482 -324 -786 -1012 -980 -2220 -50 -308 -81 -562 -130
-1028 -14 -138 11 -207 89 -247 37 -19 61 -20 525 -20 521 0 526 0 574 51 13
13 29 35 36 49 7 14 27 153 45 310 58 525 115 917 181 1260 54 279 151 633
168 614 5 -5 122 -346 260 -759 139 -412 304 -902 367 -1088 63 -186 123 -352
135 -368 11 -16 38 -38 59 -49 38 -19 61 -20 540 -20 479 0 502 1 540 20 40
20 72 58 85 99 14 45 6 99 -29 203 -19 57 -89 263 -156 458 -67 195 -188 551
-270 790 -169 497 -401 1176 -497 1455 -35 105 -107 314 -158 465 -193 568
-333 976 -349 1015 -9 22 -27 50 -39 64 -47 51 -49 51 -594 51 -477 0 -510 -1
-538 -19z m1122 -501 c63 -184 211 -618 330 -965 118 -346 278 -814 355 -1040
77 -225 177 -520 223 -655 113 -332 333 -978 384 -1125 22 -65 41 -123 41
-127 0 -4 -205 -8 -455 -8 -250 0 -455 1 -455 3 0 2 -90 271 -201 598 -110
327 -303 897 -427 1266 -125 370 -230 673 -235 673 -16 0 -103 -131 -148 -225
-170 -355 -298 -989 -417 -2060 l-28 -250 -442 -3 -442 -2 0 39 c0 163 127
1097 190 1401 68 326 114 504 192 740 183 558 412 881 750 1064 l87 47 -55
157 c-31 86 -104 297 -164 467 -60 171 -112 318 -115 328 -7 16 17 17 455 15
l463 -3 114 -335z"/>
<path d="M3902 1104 l-22 -15 0 -464 0 -464 22 -15 c19 -14 69 -16 339 -16
293 0 319 1 339 18 23 18 24 18 42 0 17 -17 41 -18 338 -18 386 0 360 -9 360
130 0 134 8 130 -240 130 l-200 0 0 59 0 60 171 3 c205 4 199 0 199 123 0 123
6 119 -199 123 l-171 3 0 49 0 49 194 3 c242 4 236 1 236 128 0 135 29 124
-349 128 -311 3 -321 2 -341 -18 -19 -19 -20 -31 -20 -381 l0 -360 -22 15
c-19 13 -58 16 -225 16 l-203 0 0 349 0 350 -22 15 c-16 12 -47 16 -113 16
-66 0 -97 -4 -113 -16z"/>
</g>
</svg>
