<?xml version="1.0" standalone="no"?>
<!DOCTYPE svg PUBLIC "-//W3C//DTD SVG 20010904//EN"
 "http://www.w3.org/TR/2001/REC-SVG-20010904/DTD/svg10.dtd">
<svg version="1.0" xmlns="http://www.w3.org/2000/svg"
 width="547.000000pt" height="537.000000pt" viewBox="0 0 547.000000 537.000000"
 preserveAspectRatio="xMidYMid meet">

<g transform="translate(0.000000,537.000000) scale(0.100000,-0.100000)"
fill="#000000" stroke="none">
<path d="M1648 4920 c-48 -26 -80 -72 -85 -123 -3 -25 8 -98 26 -182 71 -329
140 -644 146 -666 6 -23 -1 -29 -79 -69 -171 -87 -349 -245 -492 -433 -250
-330 -496 -896 -684 -1572 -23 -82 -45 -161 -50 -175 -14 -37 -112 -439 -160
-652 -51 -225 -50 -258 10 -318 48 -48 42 -47 557 -109 453 -55 457 -55 519 2
38 35 32 16 124 397 180 744 340 1265 480 1565 35 76 44 87 51 70 5 -11 25
-99 44 -195 138 -676 395 -1922 401 -1943 8 -27 53 -76 86 -93 19 -10 193 -36
472 -71 395 -50 461 -56 636 -57 285 -1 493 40 687 135 372 182 563 480 580
902 6 159 -3 244 -40 352 -99 294 -332 506 -685 624 -160 54 -267 74 -607 116
-378 46 -354 42 -360 68 -3 12 -26 121 -51 242 -25 121 -68 328 -95 460 -82
393 -147 707 -194 935 -132 646 -132 647 -206 685 -30 16 -871 125 -954 125
-22 -1 -57 -10 -77 -20z m517 -201 c231 -28 424 -55 428 -59 5 -4 40 -158 78
-341 38 -184 81 -388 95 -454 14 -66 74 -356 134 -645 168 -808 187 -901 191
-904 2 -1 177 -24 389 -50 471 -57 594 -83 769 -160 240 -105 396 -267 469
-484 24 -70 26 -91 26 -242 0 -175 -7 -221 -60 -362 -103 -273 -373 -466 -745
-534 -66 -12 -147 -17 -274 -17 -157 0 -231 6 -585 51 -223 29 -417 52 -432
52 -20 0 -29 6 -33 23 -12 51 -30 139 -95 457 -38 184 -123 598 -190 920 -67
322 -143 695 -171 830 -27 135 -52 253 -55 264 -5 16 -14 10 -60 -35 -244
-240 -494 -940 -780 -2181 -10 -43 -21 -83 -25 -89 -5 -9 -108 0 -419 38 -226
28 -413 52 -415 55 -10 9 176 767 251 1023 45 152 149 470 181 555 138 359
264 618 399 822 100 150 273 334 383 408 77 51 197 111 269 135 41 13 52 21
48 33 -3 10 -39 175 -81 367 -41 193 -84 391 -95 440 -11 50 -23 100 -25 113
-3 12 -2 22 2 22 5 0 197 -23 428 -51z"/>
<path d="M3220 1693 c5 -21 36 -166 70 -323 33 -157 63 -292 66 -301 11 -37
258 -29 367 11 120 45 186 141 195 286 6 102 -11 157 -67 206 -78 71 -189 105
-446 138 -210 26 -195 28 -185 -17z m385 -189 c34 -9 79 -25 101 -38 36 -20
39 -25 42 -69 2 -30 -4 -62 -16 -90 -25 -57 -70 -79 -165 -81 l-70 -1 -27 120
c-15 66 -30 135 -33 154 l-7 34 56 -7 c32 -4 85 -13 119 -22z"/>
<path d="M3896 3537 c-17 -12 -19 -46 -26 -428 -6 -330 -5 -418 6 -435 11 -19
25 -21 156 -27 79 -4 216 -7 304 -7 133 0 164 3 174 15 11 14 15 14 32 -2 18
-16 50 -18 314 -22 223 -2 298 0 309 9 19 16 22 189 3 208 -8 8 -50 12 -123
12 -62 0 -147 3 -189 7 l-77 6 3 51 3 51 156 3 c113 2 160 6 168 15 6 8 12 51
13 96 4 112 6 111 -184 111 l-148 0 0 50 0 50 184 0 c137 0 186 3 194 13 16
19 19 181 4 199 -10 12 -65 16 -303 22 -261 7 -293 6 -309 -9 -16 -15 -18 -47
-25 -346 -6 -242 -11 -327 -19 -320 -6 5 -98 12 -205 16 l-193 8 7 317 7 317
-23 17 c-30 21 -186 23 -213 3z"/>
</g>
</svg>
