<?xml version="1.0" standalone="no"?>
<!DOCTYPE svg PUBLIC "-//W3C//DTD SVG 20010904//EN"
 "http://www.w3.org/TR/2001/REC-SVG-20010904/DTD/svg10.dtd">
<svg version="1.0" xmlns="http://www.w3.org/2000/svg"
 width="554.000000pt" height="544.000000pt" viewBox="0 0 554.000000 544.000000"
 preserveAspectRatio="xMidYMid meet">

<g transform="translate(0.000000,544.000000) scale(0.100000,-0.100000)"
fill="#000000" stroke="none">
<path d="M0 2720 c0 -1807 3 -2720 10 -2720 7 0 10 913 10 2720 0 1807 -3
2720 -10 2720 -7 0 -10 -913 -10 -2720z"/>
<path d="M5535 2720 c0 -1499 1 -2112 2 -1362 2 749 2 1975 0 2725 -1 749 -2
136 -2 -1363z"/>
<path d="M1035 4174 c-40 -21 -66 -58 -72 -103 -5 -38 -4 -44 156 -559 28 -90
51 -169 51 -176 0 -7 -28 -30 -62 -52 -289 -186 -511 -540 -678 -1084 -103
-338 -194 -776 -271 -1305 -39 -268 -41 -324 -13 -362 46 -62 46 -62 468 -77
235 -9 399 -11 418 -5 38 10 77 45 90 79 5 14 18 88 29 165 86 613 193 1144
288 1436 23 68 45 131 50 139 12 18 -3 65 146 -435 69 -231 151 -503 181 -605
31 -102 64 -214 75 -250 81 -283 150 -496 166 -519 42 -57 55 -59 473 -72
l385 -13 25 -30 c54 -67 160 -163 214 -195 125 -75 305 -117 464 -109 91 4
132 27 157 91 16 39 14 48 -40 337 l-57 297 60 224 c33 123 67 256 77 296 l18
72 -24 48 c-38 75 -62 84 -231 86 -109 1 -159 -3 -213 -17 -144 -38 -274 -113
-363 -210 -49 -54 -52 -56 -101 -56 -28 0 -51 2 -51 5 0 3 -30 103 -66 223
-37 119 -79 260 -94 312 -16 52 -44 147 -63 210 -20 63 -92 302 -161 530 -411
1365 -479 1586 -494 1612 -35 59 -65 65 -422 77 -415 14 -477 14 -515 -5z
m569 -144 c137 -5 250 -11 251 -12 1 -2 39 -129 85 -283 45 -154 91 -305 100
-335 10 -30 48 -156 85 -280 37 -124 98 -326 135 -450 38 -124 123 -407 190
-630 67 -223 128 -425 136 -450 7 -25 45 -150 84 -279 39 -129 72 -236 73
-237 1 -1 68 -5 149 -9 l146 -8 21 39 c53 101 155 177 306 229 51 18 315 35
315 21 0 -8 -81 -313 -110 -416 -46 -165 -47 -137 14 -450 30 -156 53 -286 51
-289 -8 -7 -133 -1 -203 10 -156 24 -327 141 -389 267 l-25 52 -67 0 c-120 1
-772 27 -776 32 -5 4 -38 112 -149 483 -337 1128 -479 1601 -481 1603 -2 2
-24 -23 -49 -55 -180 -228 -319 -737 -466 -1713 -23 -151 -43 -276 -45 -278
-4 -4 -709 20 -714 24 -5 5 33 274 75 534 134 817 302 1352 532 1700 103 156
289 320 426 376 25 11 46 24 46 29 0 6 -54 183 -120 394 -66 212 -120 388
-120 393 0 5 55 6 123 3 67 -3 234 -10 371 -15z"/>
<path d="M4996 1429 l-27 -21 6 -412 c3 -226 8 -440 11 -475 l5 -63 -28 22
c-28 22 -29 22 -294 15 l-267 -7 -7 452 c-7 411 -9 453 -25 473 -17 21 -24 22
-152 19 -151 -3 -164 -6 -178 -33 -7 -13 -7 -202 1 -606 9 -499 13 -592 26
-612 l16 -24 430 7 c423 6 431 7 454 28 l23 21 25 -23 c24 -22 28 -23 152 -17
144 6 156 9 170 40 10 21 -2 1132 -13 1184 -9 48 -26 53 -168 53 -121 0 -136
-2 -160 -21z"/>
</g>
</svg>
