<?xml version="1.0" standalone="no"?>
<!DOCTYPE svg PUBLIC "-//W3C//DTD SVG 20010904//EN"
 "http://www.w3.org/TR/2001/REC-SVG-20010904/DTD/svg10.dtd">
<svg version="1.0" xmlns="http://www.w3.org/2000/svg"
 width="547.000000pt" height="543.000000pt" viewBox="0 0 547.000000 543.000000"
 preserveAspectRatio="xMidYMid meet">

<g transform="translate(0.000000,543.000000) scale(0.100000,-0.100000)"
fill="#000000" stroke="none">
<path d="M1245 4804 c-66 -34 -95 -79 -95 -148 0 -32 40 -167 130 -439 72
-216 130 -397 130 -402 0 -6 -36 -34 -79 -63 -488 -322 -798 -1064 -1000
-2397 -44 -285 -91 -672 -91 -741 0 -72 30 -123 90 -154 37 -19 66 -20 502
-26 516 -8 500 -10 553 60 29 38 27 26 90 501 97 724 205 1253 317 1554 l21
54 109 -344 c60 -189 157 -492 215 -674 114 -360 136 -429 243 -765 40 -124
77 -241 82 -260 18 -66 55 -117 100 -139 41 -19 67 -20 513 -27 524 -8 501
-10 564 61 30 35 36 58 32 120 -2 21 -322 1032 -389 1225 -3 8 8 4 24 -11 183
-165 439 -262 764 -290 357 -30 689 41 930 200 76 50 194 163 246 238 191 266
226 702 80 991 -109 217 -308 376 -575 461 -333 107 -807 105 -1144 -2 l-77
-25 -348 4 c-191 3 -361 7 -377 10 -31 4 -31 5 -104 232 -40 125 -112 351
-161 502 -49 151 -112 349 -141 439 -32 99 -62 175 -77 193 -51 61 -58 62
-407 69 -547 12 -636 11 -670 -7z m910 -170 l40 -5 138 -432 c262 -819 313
-977 320 -983 4 -4 208 -11 454 -16 l448 -8 110 35 c200 63 434 86 680 66 315
-25 540 -110 694 -261 118 -116 181 -248 200 -425 12 -104 3 -231 -23 -332
-63 -243 -247 -434 -513 -534 -258 -97 -639 -102 -933 -13 -257 78 -458 249
-549 468 -34 81 -61 218 -61 306 l0 57 -92 7 c-143 10 -208 8 -208 -6 0 -7 40
-137 89 -288 415 -1277 551 -1696 551 -1703 0 -8 -305 -7 -634 2 l-228 6 -45
140 c-103 323 -186 583 -253 795 -39 124 -105 329 -145 455 -41 127 -117 367
-170 535 -54 168 -111 348 -127 400 -17 52 -33 97 -35 100 -3 3 -25 -17 -49
-45 -56 -63 -151 -253 -204 -410 -115 -337 -239 -982 -329 -1715 -12 -91 -23
-180 -26 -198 l-6 -32 -187 0 c-103 0 -292 3 -421 7 l-233 6 6 76 c12 134 76
587 117 835 116 696 256 1180 449 1554 152 294 352 503 582 610 32 15 58 31
58 36 0 6 -67 213 -150 462 -82 249 -150 455 -150 458 0 7 776 -3 835 -10z"/>
<path d="M4085 2828 c-140 -53 -201 -164 -193 -352 6 -132 32 -201 102 -272
68 -67 128 -88 236 -82 66 4 85 9 128 37 58 37 112 111 138 191 28 83 26 249
-3 312 -33 72 -68 112 -125 144 -47 25 -64 29 -153 31 -57 1 -113 -2 -130 -9z
m220 -188 c68 -64 52 -258 -27 -325 -59 -50 -157 -24 -193 51 -27 57 -32 173
-10 229 23 61 52 76 137 72 55 -2 72 -7 93 -27z"/>
<path d="M4800 1144 c-73 -20 -126 -52 -182 -112 -110 -117 -143 -278 -87
-426 10 -28 18 -51 16 -52 -1 -1 -72 -4 -158 -8 l-156 -7 -6 128 c-4 70 -7
197 -7 281 0 87 -5 162 -10 173 -9 17 -22 19 -100 19 -65 0 -92 -4 -104 -15
-12 -13 -14 -64 -9 -377 4 -243 9 -371 17 -388 l11 -25 275 3 c313 4 300 0
300 89 l0 54 35 -36 c88 -88 235 -125 363 -91 108 29 211 117 260 224 38 83
43 218 12 305 -76 210 -267 315 -470 261z m170 -216 c118 -60 129 -270 18
-350 -46 -32 -130 -32 -176 0 -101 72 -104 270 -5 340 53 37 103 40 163 10z"/>
</g>
</svg>
